<svg xmlns:rdf="http://www.w3.org/1999/02/22-rdf-syntax-ns#" xmlns="http://www.w3.org/2000/svg" height="20mm" width="20mm" version="1.1" xmlns:cc="http://creativecommons.org/ns#" xmlns:dc="http://purl.org/dc/elements/1.1/" viewBox="0 0 20 20">
<g transform="translate(-73.504 -120.06)">
<g transform="matrix(.35278 0 0 -.35278 -4.3083 326.78)">
<g aria-label="RA" style="font-variant-ligatures:normal;font-variant-numeric:normal;font-variant-caps:normal;font-feature-settings:normal" transform="matrix(1.1293 0 0 -1.1092 -28.246 -45.784)">
<path style="font-variant-ligatures:normal;font-variant-numeric:normal;font-variant-caps:normal;font-feature-settings:normal" d="m220.57-553.59h11.73q1.89 0 3.12 1.14 1.26 1.14 1.26 3.45 0 0.99-0.33 1.86-0.33 0.84-0.93 1.47-0.57 0.63-1.38 0.99t-1.74 0.36h-0.99l8.55 15.03h-4.29l-5.94-10.29v10.29h-3.99v-19.17h6.51q0.24 0 0.36-0.18 0.15-0.18 0.15-0.39t-0.15-0.36q-0.12-0.18-0.36-0.18h-7.59v20.28h-3.99zm12.66 10.26q0.87-0.06 1.68-0.51 0.84-0.45 1.47-1.2t1.02-1.74q0.39-1.02 0.39-2.22 0-1.23-0.39-2.28t-1.11-1.8-1.74-1.17q-0.99-0.42-2.25-0.42h-11.73v-4.05h11.73q1.98 0 3.72 0.75t3.03 2.07 2.01 3.09q0.75 1.77 0.75 3.81 0 2.58-0.87 4.47-0.87 1.86-2.37 3l6.84 12.24h-4.08z"/>
<path style="font-variant-ligatures:normal;font-variant-numeric:normal;font-variant-caps:normal;font-feature-settings:normal" d="m252.84-532.8h12.45l-7.62-21.15q-0.09-0.3-0.54-0.54t-0.87-0.24q-0.48 0-0.9 0.24-0.39 0.24-0.48 0.54l-8.67 24.66h-3.99l9.27-26.16q0.21-0.63 0.6-1.2 0.39-0.6 0.96-1.05 0.6-0.48 1.38-0.75 0.81-0.27 1.83-0.27t1.8 0.27 1.35 0.75q0.6 0.45 0.99 1.05 0.39 0.57 0.63 1.2l9.27 26.16h-17.46zm0-1.08v-1.14l-1.92 5.73h-3.63l8.25-23.91q0.06-0.18 0.27-0.3 0.24-0.15 0.45-0.15t0.45 0.15q0.24 0.12 0.3 0.3l6.84 19.32zm3.42-11.13-2.4 7.56h4.89z"/>
</g>
</g>
</g>
</svg>
